<?xml version="1.0" encoding="UTF-8"?>
<svg id="_레이어_2" data-name="레이어 2" xmlns="http://www.w3.org/2000/svg" xmlns:xlink="http://www.w3.org/1999/xlink" viewBox="0 0 146.77 40.23">
  <defs>
    <style>
      .cls-1 {
        fill: url(#linear-gradient-8);
      }

      .cls-2 {
        fill: url(#linear-gradient-7);
      }

      .cls-3 {
        fill: url(#linear-gradient-5);
      }

      .cls-4 {
        fill: url(#linear-gradient-6);
      }

      .cls-5 {
        fill: url(#linear-gradient-4);
      }

      .cls-6 {
        fill: url(#linear-gradient-3);
      }

      .cls-7 {
        fill: url(#linear-gradient-2);
      }

      .cls-8 {
        fill: url(#linear-gradient);
      }
    </style>
    <linearGradient id="linear-gradient" x1="-13.92" y1="13.23" x2="242.43" y2="89.21" gradientUnits="userSpaceOnUse">
      <stop offset="0" stop-color="#ed1b23"/>
      <stop offset=".29" stop-color="#e81b23"/>
      <stop offset=".59" stop-color="#dc1b26"/>
      <stop offset=".89" stop-color="#c71c2a"/>
      <stop offset="1" stop-color="#be1d2c"/>
    </linearGradient>
    <linearGradient id="linear-gradient-2" x1="-12.16" y1="7.29" x2="244.19" y2="83.26" xlink:href="#linear-gradient"/>
    <linearGradient id="linear-gradient-3" x1="-10.04" y1=".13" x2="246.31" y2="76.11" xlink:href="#linear-gradient"/>
    <linearGradient id="linear-gradient-4" x1="-8.38" y1="-5.46" x2="247.97" y2="70.51" xlink:href="#linear-gradient"/>
    <linearGradient id="linear-gradient-5" x1="-5.03" y1="-16.77" x2="251.32" y2="59.2" xlink:href="#linear-gradient"/>
    <linearGradient id="linear-gradient-6" x1="-3.5" y1="-21.95" x2="252.86" y2="54.02" xlink:href="#linear-gradient"/>
    <linearGradient id="linear-gradient-7" x1="-11.18" y1="3.98" x2="245.17" y2="79.95" xlink:href="#linear-gradient"/>
    <linearGradient id="linear-gradient-8" x1="-7.06" y1="-9.94" x2="249.3" y2="66.04" xlink:href="#linear-gradient"/>
  </defs>
  <g id="Layer_1" data-name="Layer 1">
    <g>
      <path class="cls-8" d="M18.4,25.08v5.22c0,6.28-3.14,9.88-9.2,9.88S0,36.58,0,30.3V9.88C0,3.59,3.14,0,9.2,0s9.2,3.59,9.2,9.88v3.82h-5.83v-4.21c0-2.81-1.23-3.87-3.2-3.87s-3.2,1.07-3.2,3.87v21.21c0,2.81,1.23,3.82,3.2,3.82s3.2-1.01,3.2-3.82v-5.61h5.83Z"/>
      <path class="cls-7" d="M21.66,9.88c0-6.28,3.31-9.88,9.37-9.88s9.37,3.59,9.37,9.88v20.42c0,6.28-3.31,9.88-9.37,9.88s-9.37-3.59-9.37-9.88V9.88ZM27.83,30.69c0,2.81,1.23,3.87,3.2,3.87s3.2-1.07,3.2-3.87V9.48c0-2.81-1.23-3.87-3.2-3.87s-3.2,1.07-3.2,3.87v21.21Z"/>
      <path class="cls-6" d="M57.39,28.33h.11L61.66.45h8.58v39.27h-5.83V11.56h-.11l-4.15,28.17h-5.83l-4.49-27.77h-.11v27.77h-5.39V.45h8.58l4.49,27.88Z"/>
      <path class="cls-5" d="M74.73.45h6.17v39.27h-6.17V.45Z"/>
      <path class="cls-3" d="M113.5.45v30.3c0,2.8,1.23,3.82,3.2,3.82s3.2-1.01,3.2-3.82V.45h5.84v29.91c0,6.28-3.14,9.87-9.2,9.87s-9.2-3.59-9.2-9.87V.45h6.17Z"/>
      <path class="cls-4" d="M136.11,17h8.47v5.61h-8.47v11.5h10.66v5.61h-16.83V.45h16.83v5.61h-10.66v10.94Z"/>
      <g>
        <rect class="cls-2" x="97.45" y="34" width="6.17" height="6.17"/>
        <path class="cls-1" d="M103.62,9.88C103.62,3.59,100.31,0,94.25,0s-9.37,3.59-9.37,9.88v20.42c0,6.28,3.31,9.88,9.37,9.88h0v-5.61h0c-1.96,0-3.2-1.07-3.2-3.87V9.48c0-2.81,1.23-3.87,3.2-3.87s3.2,1.07,3.2,3.87v21.21s0,.07,0,.11h6.16c0-.17.02-.33.02-.51V9.88Z"/>
      </g>
    </g>
  </g>
</svg>